 <svg  version="1.0" xmlns="http://www.w3.org/2000/svg"  width="300.000000pt" height="300.000000pt" viewBox="0 0 300.000000 300.000000"  preserveAspectRatio="xMidYMid meet">  <g transform="translate(0.000000,300.000000) scale(0.100000,-0.100000)" fill="#0091ff" stroke="none"> <path d="M597 2417 c-17 -12 -18 -44 -19 -514 -1 -396 1 -505 12 -517 15 -19 61 -21 78 -4 9 9 12 128 12 475 l0 463 708 0 c792 0 762 2 845 -70 140 -123 112 -356 -52 -440 -31 -15 -253 -92 -1289 -448 -166 -57 -210 -76 -239 -103 -71 -68 -72 -76 -75 -379 -3 -214 -1 -276 10 -291 13 -18 36 -19 691 -19 412 0 699 4 731 10 204 39 372 214 417 435 14 69 14 91 3 155 -28 170 -122 314 -255 391 -61 35 -90 37 -111 4 -23 -35 -11 -58 56 -99 228 -141 272 -456 91 -650 -57 -60 -102 -89 -180 -116 -58 -19 -83 -20 -706 -20 l-645 0 0 210 c0 228 7 264 52 294 14 9 352 129 752 266 400 137 747 262 772 276 85 50 152 152 175 267 9 45 8 69 -5 130 -28 124 -98 212 -215 270 l-66 32 -765 3 c-619 2 -769 0 -783 -11z m1530 -17 c177 -38 290 -187 281 -369 -7 -136 -78 -245 -201 -304 -62 -31 -287 -109 -287 -101 0 4 -6 1 -13 -5 -8 -6 -22 -12 -33 -14 -10 -2 -28 -8 -39 -12 -76 -31 -115 -44 -115 -39 0 4 -6 2 -12 -3 -11 -8 -270 -100 -303 -108 -5 -1 -17 -4 -25 -7 -106 -39 -287 -101 -330 -114 -30 -9 -64 -21 -75 -26 -12 -5 -27 -10 -35 -12 -15 -3 -25 -6 -95 -33 -183 -69 -183 -69 -184 -359 -1 -184 1 -213 15 -225 13 -11 132 -13 658 -12 619 2 643 3 700 22 125 44 199 105 258 215 96 182 52 421 -101 544 -25 20 -47 40 -49 45 -2 4 -9 7 -16 7 -36 0 -61 74 -26 76 19 0 98 -40 125 -63 50 -44 124 -143 144 -192 30 -72 33 -89 37 -204 3 -105 -7 -149 -54 -247 -53 -109 -203 -224 -337 -259 -60 -15 -1178 -13 -1168 2 4 7 0 6 -10 -1 -12 -10 -44 -13 -121 -10 -57 1 -107 6 -110 9 -4 3 -6 126 -6 273 0 281 2 296 48 352 31 37 104 71 262 122 85 28 187 62 226 76 40 13 80 26 90 28 11 2 21 5 24 8 3 3 68 27 146 53 77 26 199 68 270 93 71 25 136 46 144 46 8 1 17 5 20 9 3 5 15 10 25 12 11 2 27 6 35 9 8 3 81 29 163 58 169 60 219 95 262 185 21 42 27 70 27 122 1 117 -54 206 -165 265 l-42 23 -727 3 c-693 2 -727 2 -737 -16 -6 -10 -10 -198 -10 -467 -1 -248 -5 -453 -10 -458 -5 -5 -18 -6 -30 -2 -20 6 -21 13 -21 173 -2 626 1 827 13 834 19 12 1458 10 1514 -2z"/> <path d="M1094 2081 c-22 -10 -54 -35 -71 -55 -120 -146 -23 -356 163 -356 107 0 184 59 210 162 45 173 -137 324 -302 249z m205 -39 c80 -64 103 -147 65 -241 -43 -108 -211 -147 -300 -69 -109 96 -91 260 36 326 63 33 147 26 199 -16z"/> <path d="M1160 2008 c-20 -5 -49 -24 -67 -45 -27 -29 -33 -45 -33 -81 0 -38 5 -50 39 -83 36 -37 60 -45 111 -40 18 2 61 22 76 36 13 12 31 65 29 85 -1 8 -3 25 -3 37 -4 55 -90 107 -152 91z m89 -34 c13 -9 29 -32 37 -50 24 -58 -1 -114 -63 -140 -66 -28 -143 27 -143 101 0 34 27 80 54 94 32 15 89 13 115 -5z"/> <path d="M1650 1314 c-46 -20 -87 -60 -112 -108 -30 -58 -23 -159 15 -212 43 -63 89 -88 167 -92 53 -3 75 0 106 16 133 69 165 226 68 341 -55 65 -164 90 -244 55z m170 -23 c44 -23 103 -98 97 -123 -3 -10 -1 -16 4 -12 14 8 8 -77 -8 -116 -29 -73 -101 -120 -180 -120 -69 0 -144 45 -171 102 -24 51 -28 138 -8 176 17 32 78 89 109 102 39 15 120 11 157 -9z"/> <path d="M1715 1240 c-91 -20 -131 -105 -89 -192 18 -39 53 -58 106 -58 77 0 128 50 128 125 0 34 -26 95 -40 95 -4 0 -15 8 -26 18 -21 19 -35 21 -79 12z m94 -51 c25 -25 31 -39 31 -76 0 -122 -171 -146 -210 -29 -9 27 -8 42 3 69 20 46 52 67 103 67 34 0 49 -6 73 -31z"/> </g> </svg> 