<svg version="1.1" id="Layer_1" xmlns="http://www.w3.org/2000/svg" xmlns:xlink="http://www.w3.org/1999/xlink" x="0px" y="0px"
	 width="100%" viewBox="0 0 1375 709" enable-background="new 0 0 1375 709" xml:space="preserve">
<path fill="#FFFFFF" opacity="1.000000" stroke="none" 
	d="
M995.000000,710.000000 
	C663.372986,710.000000 332.245972,710.000000 1.059484,710.000000 
	C1.059484,473.734650 1.059484,237.469254 1.059484,1.101934 
	C459.210480,1.101934 917.420959,1.101934 1375.815674,1.101934 
	C1375.815674,237.333221 1375.815674,473.666595 1375.815674,710.000000 
	C1249.135620,710.000000 1122.317871,710.000000 995.000000,710.000000 
M103.583076,412.499878 
	C103.583076,439.569336 103.583076,466.638763 103.583076,493.719543 
	C128.202545,493.719543 152.124573,493.719543 176.565002,493.719543 
	C176.565002,443.216583 176.565002,392.991211 176.565002,342.679810 
	C190.989090,342.679810 204.890732,342.679810 219.241562,342.679810 
	C219.241562,393.250275 219.241562,443.490509 219.241562,493.638763 
	C243.750183,493.638763 267.804108,493.638763 291.594513,493.638763 
	C291.594513,377.576050 291.594513,261.874115 291.594513,146.365555 
	C267.260315,146.365555 243.333038,146.365555 218.936752,146.365555 
	C218.936752,189.229660 218.936752,231.793671 218.936752,274.419281 
	C204.576645,274.419281 190.692017,274.419281 176.254425,274.419281 
	C176.254425,231.529312 176.254425,188.979340 176.254425,146.348358 
	C151.783020,146.348358 127.869110,146.348358 103.582901,146.348358 
	C103.582901,234.922150 103.582901,323.210999 103.583076,412.499878 
M688.149292,336.500031 
	C688.149292,273.107758 688.149292,209.715469 688.149292,146.460297 
	C665.048035,146.460297 642.668091,146.460297 619.750122,146.460297 
	C619.750122,178.145386 619.750122,209.434326 619.750122,241.174362 
	C616.420044,236.775024 613.785034,232.678162 610.525146,229.160431 
	C607.265808,225.643402 603.619263,222.376755 599.733093,219.566467 
	C571.361755,199.049942 533.880432,211.934387 525.213867,245.648773 
	C522.510620,256.164978 521.322815,267.331940 521.237122,278.215179 
	C520.835571,329.194092 520.910950,380.178772 521.194458,431.159302 
	C521.247803,440.752472 522.217224,450.504150 524.173828,459.888733 
	C528.127991,478.854248 537.622375,493.772430 558.177979,497.906738 
	C580.689148,502.434418 599.149353,494.924957 613.578979,477.341614 
	C616.862915,473.339905 619.533325,468.834778 623.169983,463.571716 
	C623.169983,474.401031 623.169983,484.108978 623.169983,493.692780 
	C645.076294,493.692780 666.488464,493.692780 688.149353,493.692780 
	C688.149353,441.424011 688.149353,389.462036 688.149292,336.500031 
M1086.029297,345.500000 
	C1086.029297,302.386047 1086.029297,259.272095 1086.029297,215.943878 
	C1063.188354,215.943878 1040.803955,215.943878 1017.999573,215.943878 
	C1017.999573,218.152969 1018.000122,220.117111 1017.999512,222.081268 
	C1017.980469,281.898621 1018.109253,341.716858 1017.750244,401.532166 
	C1017.706604,408.810150 1015.767151,416.324890 1013.362549,423.264221 
	C1011.339233,429.103027 1005.548462,430.487946 999.612427,429.999908 
	C993.953491,429.534607 990.215027,426.339539 988.909485,421.048279 
	C987.767944,416.421570 987.084045,411.556335 987.074951,406.794800 
	C986.957458,345.144684 986.996826,283.494293 986.996643,221.843964 
	C986.996643,219.894791 986.996643,217.945618 986.996643,216.090027 
	C963.879150,216.090027 941.325439,216.090027 918.725464,216.090027 
	C918.657227,217.477570 918.565552,218.471222 918.565430,219.464890 
	C918.560181,289.612976 918.467773,359.761322 918.675476,429.908783 
	C918.703430,439.346436 919.507202,448.916595 921.224304,458.189758 
	C926.880981,488.739624 949.174255,504.034332 978.828491,497.986206 
	C996.889099,494.302643 1009.007324,482.638092 1018.156738,467.336212 
	C1019.084167,465.785126 1020.036560,464.248993 1020.977295,462.705933 
	C1021.279907,462.863708 1021.582520,463.021484 1021.885132,463.179291 
	C1021.885132,473.297424 1021.885132,483.415588 1021.885132,493.695312 
	C1043.339600,493.695312 1064.554688,493.695312 1086.029297,493.695312 
	C1086.029297,444.427948 1086.029297,395.463989 1086.029297,345.500000 
M492.907043,387.500000 
	C492.906891,358.173187 493.147766,328.843292 492.775970,299.521179 
	C492.645691,289.248810 491.827637,278.838989 489.901184,268.763916 
	C484.812134,242.148621 469.998871,223.190216 443.441162,215.285507 
	C420.090820,208.335434 396.358704,208.413818 372.990601,215.314301 
	C352.779175,221.282654 338.683868,234.431458 331.058411,254.255630 
	C325.717316,268.141144 324.108246,282.649933 324.080231,297.372650 
	C324.007294,335.697601 323.943390,374.023376 324.145721,412.347412 
	C324.188599,420.473114 324.915649,428.662445 326.123627,436.702881 
	C331.056793,469.538147 350.378510,490.255127 381.768555,496.656006 
	C396.751312,499.711212 411.886475,499.969116 427.004364,497.953430 
	C460.948792,493.427429 483.862762,475.479553 489.805176,440.228943 
	C492.660156,423.292938 491.984009,405.761688 492.907043,387.500000 
M865.937927,478.443115 
	C869.744263,473.221527 874.152771,468.331360 877.242859,462.715668 
	C886.173096,446.487000 887.835632,428.581573 887.879456,410.479126 
	C887.969360,373.330414 888.104309,336.179565 887.775940,299.033539 
	C887.686646,288.933197 886.807312,278.694275 884.908813,268.783600 
	C879.812378,242.177963 865.025269,223.213043 838.479858,215.297104 
	C815.138977,208.336761 791.410950,208.404785 768.048523,215.301605 
	C747.656616,221.321503 733.507629,234.591339 725.923218,254.657562 
	C720.539734,268.900818 719.081787,283.734589 719.065857,298.785431 
	C719.026367,336.100922 718.849182,373.418274 719.185608,410.730774 
	C719.278137,420.993774 720.123596,431.412933 722.115723,441.464722 
	C727.640259,469.340790 743.708801,488.086823 771.794373,495.391113 
	C789.623047,500.027863 807.659729,500.193665 825.775635,497.310028 
	C840.723267,494.930756 854.264893,489.494232 865.937927,478.443115 
M1266.555054,290.560181 
	C1266.359741,285.233124 1266.453491,279.876801 1265.917969,274.584167 
	C1263.809448,253.739334 1256.645508,235.414322 1238.780396,222.856216 
	C1222.563965,211.456924 1204.065063,208.917542 1184.937744,210.288528 
	C1164.713623,211.738129 1146.511230,218.472275 1132.707520,234.089294 
	C1114.936890,254.194290 1111.546753,278.289459 1114.538574,303.822266 
	C1117.000244,324.830170 1127.755737,341.697083 1142.716431,355.885742 
	C1157.095337,369.522552 1172.217041,382.373047 1186.801270,395.798431 
	C1191.427979,400.057495 1196.049316,404.608276 1199.488525,409.808929 
	C1205.768188,419.304626 1205.725220,429.587616 1200.391724,439.638550 
	C1197.938843,444.260895 1193.732178,446.700623 1188.497437,446.574951 
	C1183.017212,446.443359 1178.802368,443.665009 1176.982056,438.486664 
	C1175.457886,434.151367 1174.250366,429.546936 1173.916992,424.987549 
	C1173.411377,418.070404 1173.784912,411.088989 1173.784912,404.130859 
	C1152.536865,404.130859 1132.148926,404.130859 1110.753662,404.130859 
	C1111.530029,416.644684 1111.265381,428.903198 1113.233398,440.792145 
	C1117.886230,468.900452 1133.848755,487.880646 1161.673584,495.846039 
	C1175.643799,499.845306 1189.972046,500.120209 1204.265625,497.925568 
	C1227.436401,494.368011 1246.490845,484.034180 1258.754883,463.291595 
	C1274.069336,437.390259 1276.647339,390.397278 1248.002930,359.775696 
	C1233.035767,343.775574 1215.892578,329.820770 1199.889648,314.774902 
	C1193.475342,308.744324 1187.138428,302.561676 1181.403076,295.899841 
	C1176.299438,289.971680 1174.689575,282.632294 1175.997437,274.799255 
	C1177.631592,265.011932 1186.082153,259.196075 1194.760864,261.936890 
	C1201.128784,263.947906 1203.240967,269.274597 1203.913574,275.034302 
	C1204.793213,282.567108 1204.925293,290.187164 1205.377197,297.740417 
	C1225.750000,297.740417 1245.971802,297.740417 1266.554932,297.740417 
	C1266.554932,295.440063 1266.554932,293.464874 1266.555054,290.560181 
M1268.584961,190.102524 
	C1270.154907,185.988922 1271.724854,181.875320 1273.343506,177.634186 
	C1245.479858,165.814987 1218.104858,154.203110 1190.730103,142.591293 
	C1190.730103,126.803116 1190.730103,111.539619 1190.730103,96.279755 
	C1174.391479,96.279755 1158.325073,96.279755 1142.002441,96.279755 
	C1142.002441,104.836838 1142.002441,113.116539 1142.002441,121.802948 
	C1140.444336,121.198875 1139.233276,120.765541 1138.050537,120.265648 
	C1089.507690,99.751381 1040.958130,79.253288 992.451599,58.653786 
	C989.678772,57.476223 987.469116,57.376945 984.617432,58.592079 
	C896.027832,96.340881 807.394897,133.987747 718.760742,171.631973 
	C712.123779,174.450775 705.429016,177.133362 698.462219,180.002350 
	C702.052917,189.705353 705.467041,198.931168 709.022095,208.537903 
	C715.264893,205.925812 720.884583,203.550232 726.522705,201.218979 
	C808.914368,167.151321 891.388977,133.281357 973.604980,98.794891 
	C984.448364,94.246490 993.279236,94.017296 1004.283203,98.660568 
	C1086.604248,133.396912 1169.227661,167.416733 1251.767090,201.634750 
	C1255.227661,203.069351 1258.795654,204.244614 1262.602539,205.647125 
	C1264.593628,200.370285 1266.402100,195.577530 1268.584961,190.102524 
M1204.588745,552.880798 
	C1217.221191,575.155518 1229.828369,597.444763 1242.547485,619.669861 
	C1243.331665,621.039978 1244.955566,622.790894 1246.262939,622.855225 
	C1252.864990,623.180054 1259.491821,623.004517 1266.243652,623.004517 
	C1266.243652,587.141174 1266.243652,551.749084 1266.243652,516.399719 
	C1259.332642,516.399719 1252.751709,516.399719 1245.739014,516.399719 
	C1245.739014,540.894958 1245.739014,565.067139 1245.739014,590.492126 
	C1244.143433,587.856384 1243.179688,586.353760 1242.302612,584.802124 
	C1230.029297,563.088501 1217.790771,541.355225 1205.450928,519.679565 
	C1204.643555,518.261536 1203.127930,516.303833 1201.864380,516.244568 
	C1194.770874,515.911560 1187.653809,516.084106 1180.429688,516.084106 
	C1180.429688,551.992493 1180.429688,587.359985 1180.429688,622.741882 
	C1187.343506,622.741882 1193.930908,622.741882 1200.971680,622.741882 
	C1200.971680,597.797119 1200.971680,573.113037 1200.971680,546.906616 
	C1202.566528,549.567261 1203.371704,550.910461 1204.588745,552.880798 
M385.912170,579.437256 
	C385.912170,582.689575 385.912170,585.941833 385.912170,590.616394 
	C384.236603,587.933472 383.255859,586.487915 382.399109,584.972290 
	C370.119507,563.249817 357.877716,541.505859 345.541748,519.815430 
	C344.722931,518.375732 343.265289,516.319092 342.024658,516.261047 
	C334.790222,515.922424 327.531891,516.095154 320.393860,516.095154 
	C320.393860,552.133179 320.393860,587.392090 320.393860,622.595459 
	C327.394409,622.595459 334.100616,622.595459 341.310120,622.595459 
	C341.310120,597.573547 341.310120,572.961975 341.310120,547.223572 
	C342.760895,549.743347 343.597656,551.177795 344.416870,552.622192 
	C357.055756,574.906189 369.669647,597.204529 382.382996,619.445923 
	C383.188507,620.855103 384.716003,622.775085 385.989014,622.839111 
	C392.724609,623.177795 399.486298,622.998108 406.304871,622.998108 
	C406.304871,587.070862 406.304871,551.805420 406.304871,516.329590 
	C399.472717,516.329590 392.905731,516.329590 385.912140,516.329590 
	C385.912140,537.207336 385.912140,557.831848 385.912170,579.437256 
M616.134216,543.500000 
	C616.134216,569.910400 616.134216,596.320862 616.134216,622.751709 
	C623.712036,622.751709 630.634094,622.751709 638.094116,622.751709 
	C638.094116,608.796753 638.094116,595.084717 638.094116,581.108765 
	C645.438599,581.108765 652.243835,581.094055 659.048950,581.111755 
	C674.861023,581.152832 677.771301,584.239441 678.062988,600.147583 
	C678.201416,607.694458 679.047791,615.228333 679.564209,622.636536 
	C688.755920,622.636536 696.779114,622.636536 704.802368,622.636536 
	C705.190308,622.402710 705.578247,622.168884 705.966187,621.935059 
	C699.982178,617.715149 700.204529,611.731262 700.131592,605.836487 
	C700.098633,603.172180 700.099243,600.507324 700.094971,597.842712 
	C700.078125,587.226807 699.408813,576.915405 688.628052,572.479492 
	C692.380432,568.457397 696.951599,565.069275 699.514709,560.543823 
	C709.622070,542.698547 698.584534,519.376953 678.263489,517.233643 
	C661.947754,515.512817 645.360779,516.351562 628.893616,516.086365 
	C624.782715,516.020142 620.669800,516.076477 616.134216,516.076477 
	C616.134216,525.257019 616.134216,533.878540 616.134216,543.500000 
M1139.929810,618.523315 
	C1149.141846,613.006226 1155.460693,605.110596 1159.088379,595.052063 
	C1163.716064,582.221069 1164.181396,569.049744 1162.071899,555.707031 
	C1159.047241,536.574219 1149.274414,522.481384 1130.460693,516.398254 
	C1110.745117,510.023438 1092.097656,512.618896 1076.559814,527.171021 
	C1064.109131,538.831909 1061.433716,554.476379 1061.575562,570.669617 
	C1061.705200,585.456909 1064.657471,599.521606 1075.247070,610.751709 
	C1090.826904,627.273865 1116.857910,630.500427 1139.929810,618.523315 
M202.033249,559.681641 
	C202.013092,566.004211 201.457474,572.379333 202.070969,578.639771 
	C204.089035,599.233398 213.104156,615.134705 233.553085,622.551697 
	C258.733246,631.684753 286.437744,621.780273 297.087646,599.720825 
	C303.760681,585.898865 304.179199,571.225037 302.173157,556.256165 
	C296.128540,511.152405 246.167542,504.005371 220.589981,523.525391 
	C208.949249,532.409180 204.078598,544.838013 202.033249,559.681641 
M480.726410,604.483459 
	C475.037811,605.393860 469.352753,607.037354 463.659882,607.064880 
	C451.075134,607.125732 445.675049,602.469421 442.536072,590.057495 
	C436.633392,590.057495 430.651764,590.049438 424.670258,590.067139 
	C423.870697,590.069458 423.071533,590.201660 422.317352,590.269653 
	C421.234833,602.072754 427.065277,613.735840 438.118164,619.293823 
	C456.140411,628.356323 474.740051,628.660706 492.793549,619.463989 
	C505.357361,613.063721 509.530243,601.465576 508.697632,588.020752 
	C507.903748,575.200989 499.838226,568.173462 488.377197,564.267456 
	C486.962738,563.785278 485.529388,563.344971 484.081665,562.976074 
	C473.456726,560.268372 462.801300,557.675842 452.208527,554.848511 
	C447.690033,553.642456 444.576569,550.753662 444.132996,545.808899 
	C443.686462,540.830933 445.841827,537.109253 450.116638,534.612549 
	C463.470184,526.813477 480.018036,533.069214 484.539978,547.654053 
	C491.301605,547.654053 498.076202,547.654053 504.830597,547.654053 
	C505.666107,534.674561 497.316254,522.176208 484.187378,516.935059 
	C473.181152,512.541260 461.789917,512.296448 450.338562,514.805603 
	C430.896790,519.065552 421.309326,532.840332 423.882874,552.353271 
	C425.631287,565.609985 434.785706,571.523987 446.298370,574.810852 
	C456.994446,577.864502 467.890594,580.217102 478.587219,583.269104 
	C482.981995,584.522949 486.844269,587.019714 487.330994,592.388062 
	C487.797974,597.538635 485.876251,601.458862 480.726410,604.483459 
M741.395752,621.217285 
	C754.808289,627.093567 768.545593,627.263733 782.374756,623.149536 
	C796.000610,619.095947 803.819092,609.697327 806.085876,595.765320 
	C806.750305,591.681580 806.976135,587.488831 806.995056,583.344177 
	C807.085449,563.520874 807.035706,543.696899 807.035706,523.873169 
	C807.035706,521.421570 807.035706,518.969971 807.035706,516.361206 
	C799.331055,516.361206 792.111816,516.361206 784.436707,516.361206 
	C784.436707,524.770752 784.465942,532.902466 784.430603,541.033936 
	C784.359741,557.356323 784.391052,573.681030 784.096375,589.999695 
	C783.972961,596.834229 780.758362,602.098999 774.245300,604.924316 
	C758.894348,611.583374 745.664978,603.760925 744.270203,587.193726 
	C744.116882,585.371948 744.136536,583.532715 744.135742,581.701538 
	C744.127014,561.711243 744.130188,541.720886 744.130127,521.730591 
	C744.130127,519.963074 744.130066,518.195618 744.130066,516.304199 
	C736.428162,516.304199 729.339050,516.304199 722.078552,516.304199 
	C721.936768,517.117859 721.731873,517.740723 721.733704,518.362854 
	C721.805237,542.681763 721.647766,567.005066 722.081848,591.317749 
	C722.319702,604.642822 728.408630,614.885193 741.395752,621.217285 
M125.874748,516.189392 
	C111.267395,521.726990 102.315224,532.377380 97.716911,547.079712 
	C94.474983,557.445190 94.218697,568.020508 94.978981,578.716003 
	C97.278168,611.060181 120.421608,629.726868 152.453995,625.031311 
	C170.672318,622.360779 186.143158,607.552673 188.156189,586.306152 
	C182.647781,586.306152 177.153290,586.495239 171.679764,586.237976 
	C168.176620,586.073364 166.611542,587.023315 165.438293,590.683167 
	C162.423264,600.088135 155.781265,605.505676 145.624207,606.243774 
	C135.290039,606.994812 127.102188,603.328979 122.516174,593.949524 
	C115.005478,578.588562 114.959213,562.669556 121.622864,547.082397 
	C125.893158,537.093567 134.165100,532.438049 145.200424,532.820068 
	C155.793701,533.186768 162.637421,538.308105 166.047363,548.315796 
	C166.423080,549.418457 167.854324,550.901978 168.840714,550.936646 
	C175.465347,551.169312 182.102066,551.057678 188.972885,551.057678 
	C187.535995,539.465698 182.892288,530.040833 174.020752,523.269287 
	C159.664276,512.311035 143.568069,511.056580 125.874748,516.189392 
M865.057678,534.154846 
	C876.977051,530.455811 892.540344,533.669983 896.217896,548.994202 
	C896.415405,549.817139 897.719360,550.941406 898.531067,550.960449 
	C905.274902,551.119019 912.024048,551.050415 919.066956,551.050415 
	C918.679810,549.048706 918.452148,547.747192 918.171326,546.457275 
	C917.924561,545.323792 917.693054,544.178528 917.327271,543.080872 
	C911.045471,524.227722 897.204895,515.437012 878.112488,513.525940 
	C858.772034,511.589966 841.032349,520.354614 832.184814,536.440430 
	C824.917725,549.652710 823.914185,563.943176 824.962158,578.615417 
	C827.275940,611.009766 850.297058,629.686401 882.351929,625.037659 
	C900.697754,622.377075 915.882751,607.755188 918.260254,586.306213 
	C912.412964,586.306213 906.589600,586.470215 900.781860,586.239502 
	C897.721558,586.117920 896.594788,587.133545 895.684021,590.132141 
	C892.676880,600.032288 885.588318,605.484314 875.724854,606.215088 
	C864.700500,607.031799 856.645996,602.868896 852.098389,593.157227 
	C845.334717,578.712952 845.418518,563.840271 850.730713,548.977966 
	C853.126770,542.274170 857.678833,537.319214 865.057678,534.154846 
M559.511230,623.001587 
	C563.288147,623.001587 567.065063,623.001587 571.287964,623.001587 
	C571.287964,593.408691 571.287964,564.370911 571.287964,534.855347 
	C582.150085,534.855347 592.550110,534.855347 602.932373,534.855347 
	C602.932373,528.436829 602.932373,522.504883 602.932373,516.464600 
	C574.203369,516.464600 545.708557,516.464600 517.302917,516.464600 
	C517.302917,522.782776 517.302917,528.713318 517.302917,535.103271 
	C527.951599,535.103271 538.348267,535.103271 549.178589,535.103271 
	C549.178589,564.606750 549.178589,593.644714 549.178589,623.001587 
	C552.588989,623.001587 555.559326,623.001587 559.511230,623.001587 
M980.141052,537.778748 
	C979.741699,534.468872 982.104309,535.018311 984.033997,535.016174 
	C993.303162,535.006165 1002.572266,535.011719 1011.792847,535.011719 
	C1011.792847,528.413330 1011.792847,522.372070 1011.792847,516.418945 
	C983.048523,516.418945 954.677673,516.418945 926.257751,516.418945 
	C926.257751,522.688232 926.257751,528.616882 926.257751,535.013062 
	C936.858093,535.013062 947.253784,535.013062 958.090027,535.013062 
	C958.090027,564.518677 958.090027,593.557007 958.090027,622.755981 
	C965.610779,622.755981 972.677429,622.755981 980.139160,622.755981 
	C980.139160,594.585999 980.139160,566.659790 980.141052,537.778748 
M1025.841309,623.015015 
	C1032.290649,623.015015 1038.739990,623.015015 1045.366943,623.015015 
	C1045.366943,587.174866 1045.366943,551.807556 1045.366943,516.335449 
	C1037.978760,516.335449 1030.905884,516.335449 1023.818237,516.335449 
	C1023.621460,517.053223 1023.381348,517.520691 1023.381042,517.988342 
	C1023.356201,551.955627 1023.336670,585.922974 1023.409058,619.890137 
	C1023.411255,620.924805 1024.389160,621.957397 1025.841309,623.015015 
z"/>
<path fill="#414142" opacity="1.000000" stroke="none" 
	d="
M103.582993,411.999878 
	C103.582901,323.210999 103.582901,234.922150 103.582901,146.348358 
	C127.869110,146.348358 151.783020,146.348358 176.254425,146.348358 
	C176.254425,188.979340 176.254425,231.529312 176.254425,274.419281 
	C190.692017,274.419281 204.576645,274.419281 218.936752,274.419281 
	C218.936752,231.793671 218.936752,189.229660 218.936752,146.365555 
	C243.333038,146.365555 267.260315,146.365555 291.594513,146.365555 
	C291.594513,261.874115 291.594513,377.576050 291.594513,493.638763 
	C267.804108,493.638763 243.750183,493.638763 219.241562,493.638763 
	C219.241562,443.490509 219.241562,393.250275 219.241562,342.679810 
	C204.890732,342.679810 190.989090,342.679810 176.565002,342.679810 
	C176.565002,392.991211 176.565002,443.216583 176.565002,493.719543 
	C152.124573,493.719543 128.202545,493.719543 103.583076,493.719543 
	C103.583076,466.638763 103.583076,439.569336 103.582993,411.999878 
z"/>
<path fill="#414142" opacity="1.000000" stroke="none" 
	d="
M688.149292,337.000061 
	C688.149353,389.462036 688.149353,441.424011 688.149353,493.692780 
	C666.488464,493.692780 645.076294,493.692780 623.169983,493.692780 
	C623.169983,484.108978 623.169983,474.401031 623.169983,463.571716 
	C619.533325,468.834778 616.862915,473.339905 613.578979,477.341614 
	C599.149353,494.924957 580.689148,502.434418 558.177979,497.906738 
	C537.622375,493.772430 528.127991,478.854248 524.173828,459.888733 
	C522.217224,450.504150 521.247803,440.752472 521.194458,431.159302 
	C520.910950,380.178772 520.835571,329.194092 521.237122,278.215179 
	C521.322815,267.331940 522.510620,256.164978 525.213867,245.648773 
	C533.880432,211.934387 571.361755,199.049942 599.733093,219.566467 
	C603.619263,222.376755 607.265808,225.643402 610.525146,229.160431 
	C613.785034,232.678162 616.420044,236.775024 619.750122,241.174362 
	C619.750122,209.434326 619.750122,178.145386 619.750122,146.460297 
	C642.668091,146.460297 665.048035,146.460297 688.149292,146.460297 
	C688.149292,209.715469 688.149292,273.107758 688.149292,337.000061 
M620.111145,381.500000 
	C620.071594,353.362885 620.286926,325.221619 619.825439,297.091431 
	C619.699158,289.397217 618.184937,281.557983 616.120972,274.114319 
	C614.337280,267.681396 609.480774,265.312347 603.023987,265.734955 
	C597.204834,266.115784 593.515015,268.983032 591.947510,275.411621 
	C590.895813,279.725281 590.362061,284.271820 590.350647,288.716095 
	C590.237366,332.670074 590.231384,376.624634 590.356201,420.578552 
	C590.369263,425.184235 590.965820,429.901611 592.096924,434.363007 
	C593.631775,440.416412 597.759033,443.445892 603.617615,443.609619 
	C609.352112,443.769867 613.742310,441.229858 615.838684,435.885193 
	C617.338135,432.062378 618.701965,427.945953 618.905640,423.899078 
	C619.599182,410.114044 619.751892,396.301849 620.111145,381.500000 
z"/>
<path fill="#414142" opacity="1.000000" stroke="none" 
	d="
M1086.029297,346.000000 
	C1086.029297,395.463989 1086.029297,444.427948 1086.029297,493.695312 
	C1064.554688,493.695312 1043.339600,493.695312 1021.885132,493.695312 
	C1021.885132,483.415588 1021.885132,473.297424 1021.885132,463.179291 
	C1021.582520,463.021484 1021.279907,462.863708 1020.977295,462.705933 
	C1020.036560,464.248993 1019.084167,465.785126 1018.156738,467.336212 
	C1009.007324,482.638092 996.889099,494.302643 978.828491,497.986206 
	C949.174255,504.034332 926.880981,488.739624 921.224304,458.189758 
	C919.507202,448.916595 918.703430,439.346436 918.675476,429.908783 
	C918.467773,359.761322 918.560181,289.612976 918.565430,219.464890 
	C918.565552,218.471222 918.657227,217.477570 918.725464,216.090027 
	C941.325439,216.090027 963.879150,216.090027 986.996643,216.090027 
	C986.996643,217.945618 986.996643,219.894791 986.996643,221.843964 
	C986.996826,283.494293 986.957458,345.144684 987.074951,406.794800 
	C987.084045,411.556335 987.767944,416.421570 988.909485,421.048279 
	C990.215027,426.339539 993.953491,429.534607 999.612427,429.999908 
	C1005.548462,430.487946 1011.339233,429.103027 1013.362549,423.264221 
	C1015.767151,416.324890 1017.706604,408.810150 1017.750244,401.532166 
	C1018.109253,341.716858 1017.980469,281.898621 1017.999512,222.081268 
	C1018.000122,220.117111 1017.999573,218.152969 1017.999573,215.943878 
	C1040.803955,215.943878 1063.188354,215.943878 1086.029297,215.943878 
	C1086.029297,259.272095 1086.029297,302.386047 1086.029297,346.000000 
z"/>
<path fill="#424243" opacity="1.000000" stroke="none" 
	d="
M492.907013,388.000000 
	C491.984009,405.761688 492.660156,423.292938 489.805176,440.228943 
	C483.862762,475.479553 460.948792,493.427429 427.004364,497.953430 
	C411.886475,499.969116 396.751312,499.711212 381.768555,496.656006 
	C350.378510,490.255127 331.056793,469.538147 326.123627,436.702881 
	C324.915649,428.662445 324.188599,420.473114 324.145721,412.347412 
	C323.943390,374.023376 324.007294,335.697601 324.080231,297.372650 
	C324.108246,282.649933 325.717316,268.141144 331.058411,254.255630 
	C338.683868,234.431458 352.779175,221.282654 372.990601,215.314301 
	C396.358704,208.413818 420.090820,208.335434 443.441162,215.285507 
	C469.998871,223.190216 484.812134,242.148621 489.901184,268.763916 
	C491.827637,278.838989 492.645691,289.248810 492.775970,299.521179 
	C493.147766,328.843292 492.906891,358.173187 492.907013,388.000000 
M396.314148,440.020355 
	C400.512115,445.872131 406.348724,446.554169 412.801910,445.211792 
	C418.930389,443.936951 421.577789,439.405731 422.554138,433.886139 
	C423.332611,429.485565 423.606781,424.945618 423.614288,420.466705 
	C423.687714,376.651276 423.690735,332.835632 423.608185,289.020233 
	C423.599762,284.549164 423.339264,279.988159 422.430206,275.628510 
	C420.683929,267.253784 416.241119,263.870453 408.161560,263.919098 
	C400.345947,263.966156 395.711884,267.817352 394.048065,275.950043 
	C393.451019,278.868469 393.057495,281.886505 393.053772,284.859680 
	C392.994812,331.673767 392.931488,378.488342 393.145172,425.301575 
	C393.166565,429.987000 394.979370,434.664307 396.314148,440.020355 
z"/>
<path fill="#424243" opacity="1.000000" stroke="none" 
	d="
M865.677246,478.681396 
	C854.264893,489.494232 840.723267,494.930756 825.775635,497.310028 
	C807.659729,500.193665 789.623047,500.027863 771.794373,495.391113 
	C743.708801,488.086823 727.640259,469.340790 722.115723,441.464722 
	C720.123596,431.412933 719.278137,420.993774 719.185608,410.730774 
	C718.849182,373.418274 719.026367,336.100922 719.065857,298.785431 
	C719.081787,283.734589 720.539734,268.900818 725.923218,254.657562 
	C733.507629,234.591339 747.656616,221.321503 768.048523,215.301605 
	C791.410950,208.404785 815.138977,208.336761 838.479858,215.297104 
	C865.025269,223.213043 879.812378,242.177963 884.908813,268.783600 
	C886.807312,278.694275 887.686646,288.933197 887.775940,299.033539 
	C888.104309,336.179565 887.969360,373.330414 887.879456,410.479126 
	C887.835632,428.581573 886.173096,446.487000 877.242859,462.715668 
	C874.152771,468.331360 869.744263,473.221527 865.677246,478.681396 
M787.980469,292.508545 
	C787.981689,335.632416 787.924805,378.756439 788.063782,421.879883 
	C788.079651,426.810669 788.643250,431.886505 789.929199,436.630432 
	C791.667664,443.043884 796.687561,445.986542 803.655151,445.835693 
	C810.696472,445.683258 815.422913,442.585968 816.908813,435.997498 
	C818.067810,430.858795 818.571838,425.471039 818.587158,420.191711 
	C818.713806,376.568726 818.688293,332.945190 818.613403,289.321991 
	C818.605774,284.847260 818.403870,280.288513 817.539856,275.917511 
	C815.851624,267.377289 811.229309,263.821564 802.983765,263.923065 
	C795.236267,264.018402 790.473572,267.889374 789.076355,276.121521 
	C788.219666,281.168793 788.313477,286.377380 787.980469,292.508545 
z"/>
<path fill="#424243" opacity="1.000000" stroke="none" 
	d="
M1266.554932,291.024933 
	C1266.554932,293.464874 1266.554932,295.440063 1266.554932,297.740417 
	C1245.971802,297.740417 1225.750000,297.740417 1205.377197,297.740417 
	C1204.925293,290.187164 1204.793213,282.567108 1203.913574,275.034302 
	C1203.240967,269.274597 1201.128784,263.947906 1194.760864,261.936890 
	C1186.082153,259.196075 1177.631592,265.011932 1175.997437,274.799255 
	C1174.689575,282.632294 1176.299438,289.971680 1181.403076,295.899841 
	C1187.138428,302.561676 1193.475342,308.744324 1199.889648,314.774902 
	C1215.892578,329.820770 1233.035767,343.775574 1248.002930,359.775696 
	C1276.647339,390.397278 1274.069336,437.390259 1258.754883,463.291595 
	C1246.490845,484.034180 1227.436401,494.368011 1204.265625,497.925568 
	C1189.972046,500.120209 1175.643799,499.845306 1161.673584,495.846039 
	C1133.848755,487.880646 1117.886230,468.900452 1113.233398,440.792145 
	C1111.265381,428.903198 1111.530029,416.644684 1110.753662,404.130859 
	C1132.148926,404.130859 1152.536865,404.130859 1173.784912,404.130859 
	C1173.784912,411.088989 1173.411377,418.070404 1173.916992,424.987549 
	C1174.250366,429.546936 1175.457886,434.151367 1176.982056,438.486664 
	C1178.802368,443.665009 1183.017212,446.443359 1188.497437,446.574951 
	C1193.732178,446.700623 1197.938843,444.260895 1200.391724,439.638550 
	C1205.725220,429.587616 1205.768188,419.304626 1199.488525,409.808929 
	C1196.049316,404.608276 1191.427979,400.057495 1186.801270,395.798431 
	C1172.217041,382.373047 1157.095337,369.522552 1142.716431,355.885742 
	C1127.755737,341.697083 1117.000244,324.830170 1114.538574,303.822266 
	C1111.546753,278.289459 1114.936890,254.194290 1132.707520,234.089294 
	C1146.511230,218.472275 1164.713623,211.738129 1184.937744,210.288528 
	C1204.065063,208.917542 1222.563965,211.456924 1238.780396,222.856216 
	C1256.645508,235.414322 1263.809448,253.739334 1265.917969,274.584167 
	C1266.453491,279.876801 1266.359741,285.233124 1266.554932,291.024933 
z"/>
<path fill="#242021" opacity="1.000000" stroke="none" 
	d="
M1268.397705,190.443634 
	C1266.402100,195.577530 1264.593628,200.370285 1262.602539,205.647125 
	C1258.795654,204.244614 1255.227661,203.069351 1251.767090,201.634750 
	C1169.227661,167.416733 1086.604248,133.396912 1004.283203,98.660568 
	C993.279236,94.017296 984.448364,94.246490 973.604980,98.794891 
	C891.388977,133.281357 808.914368,167.151321 726.522705,201.218979 
	C720.884583,203.550232 715.264893,205.925812 709.022095,208.537903 
	C705.467041,198.931168 702.052917,189.705353 698.462219,180.002350 
	C705.429016,177.133362 712.123779,174.450775 718.760742,171.631973 
	C807.394897,133.987747 896.027832,96.340881 984.617432,58.592079 
	C987.469116,57.376945 989.678772,57.476223 992.451599,58.653786 
	C1040.958130,79.253288 1089.507690,99.751381 1138.050537,120.265648 
	C1139.233276,120.765541 1140.444336,121.198875 1142.002441,121.802948 
	C1142.002441,113.116539 1142.002441,104.836838 1142.002441,96.279755 
	C1158.325073,96.279755 1174.391479,96.279755 1190.730103,96.279755 
	C1190.730103,111.539619 1190.730103,126.803116 1190.730103,142.591293 
	C1218.104858,154.203110 1245.479858,165.814987 1273.343506,177.634186 
	C1271.724854,181.875320 1270.154907,185.988922 1268.397705,190.443634 
z"/>
<path fill="#444445" opacity="1.000000" stroke="none" 
	d="
M1204.382812,552.567261 
	C1203.371704,550.910461 1202.566528,549.567261 1200.971680,546.906616 
	C1200.971680,573.113037 1200.971680,597.797119 1200.971680,622.741882 
	C1193.930908,622.741882 1187.343506,622.741882 1180.429688,622.741882 
	C1180.429688,587.359985 1180.429688,551.992493 1180.429688,516.084106 
	C1187.653809,516.084106 1194.770874,515.911560 1201.864380,516.244568 
	C1203.127930,516.303833 1204.643555,518.261536 1205.450928,519.679565 
	C1217.790771,541.355225 1230.029297,563.088501 1242.302612,584.802124 
	C1243.179688,586.353760 1244.143433,587.856384 1245.739014,590.492126 
	C1245.739014,565.067139 1245.739014,540.894958 1245.739014,516.399719 
	C1252.751709,516.399719 1259.332642,516.399719 1266.243652,516.399719 
	C1266.243652,551.749084 1266.243652,587.141174 1266.243652,623.004517 
	C1259.491821,623.004517 1252.864990,623.180054 1246.262939,622.855225 
	C1244.955566,622.790894 1243.331665,621.039978 1242.547485,619.669861 
	C1229.828369,597.444763 1217.221191,575.155518 1204.382812,552.567261 
z"/>
<path fill="#444445" opacity="1.000000" stroke="none" 
	d="
M385.912170,578.946777 
	C385.912140,557.831848 385.912140,537.207336 385.912140,516.329590 
	C392.905731,516.329590 399.472717,516.329590 406.304871,516.329590 
	C406.304871,551.805420 406.304871,587.070862 406.304871,622.998108 
	C399.486298,622.998108 392.724609,623.177795 385.989014,622.839111 
	C384.716003,622.775085 383.188507,620.855103 382.382996,619.445923 
	C369.669647,597.204529 357.055756,574.906189 344.416870,552.622192 
	C343.597656,551.177795 342.760895,549.743347 341.310120,547.223572 
	C341.310120,572.961975 341.310120,597.573547 341.310120,622.595459 
	C334.100616,622.595459 327.394409,622.595459 320.393860,622.595459 
	C320.393860,587.392090 320.393860,552.133179 320.393860,516.095154 
	C327.531891,516.095154 334.790222,515.922424 342.024658,516.261047 
	C343.265289,516.319092 344.722931,518.375732 345.541748,519.815430 
	C357.877716,541.505859 370.119507,563.249817 382.399109,584.972290 
	C383.255859,586.487915 384.236603,587.933472 385.912170,590.616394 
	C385.912170,585.941833 385.912170,582.689575 385.912170,578.946777 
z"/>
<path fill="#434344" opacity="1.000000" stroke="none" 
	d="
M616.134216,543.000000 
	C616.134216,533.878540 616.134216,525.257019 616.134216,516.076477 
	C620.669800,516.076477 624.782715,516.020142 628.893616,516.086365 
	C645.360779,516.351562 661.947754,515.512817 678.263489,517.233643 
	C698.584534,519.376953 709.622070,542.698547 699.514709,560.543823 
	C696.951599,565.069275 692.380432,568.457397 688.628052,572.479492 
	C699.408813,576.915405 700.078125,587.226807 700.094971,597.842712 
	C700.099243,600.507324 700.098633,603.172180 700.131592,605.836487 
	C700.204529,611.731262 699.982178,617.715149 705.966187,621.935059 
	C705.578247,622.168884 705.190308,622.402710 704.802368,622.636536 
	C696.779114,622.636536 688.755920,622.636536 679.564209,622.636536 
	C679.047791,615.228333 678.201416,607.694458 678.062988,600.147583 
	C677.771301,584.239441 674.861023,581.152832 659.048950,581.111755 
	C652.243835,581.094055 645.438599,581.108765 638.094116,581.108765 
	C638.094116,595.084717 638.094116,608.796753 638.094116,622.751709 
	C630.634094,622.751709 623.712036,622.751709 616.134216,622.751709 
	C616.134216,596.320862 616.134216,569.910400 616.134216,543.000000 
M653.500183,563.099426 
	C659.299805,562.872070 665.195923,563.222351 670.874817,562.272766 
	C678.127869,561.059937 681.250488,556.017578 680.962585,547.974182 
	C680.715210,541.062988 676.690918,535.573303 670.054504,535.208130 
	C659.514709,534.628357 648.919678,535.053528 638.273926,535.053528 
	C638.273926,544.443909 638.273926,553.648926 638.273926,563.099487 
	C643.229797,563.099487 647.866028,563.099487 653.500183,563.099426 
z"/>
<path fill="#434344" opacity="1.000000" stroke="none" 
	d="
M1139.617676,618.718506 
	C1116.857910,630.500427 1090.826904,627.273865 1075.247070,610.751709 
	C1064.657471,599.521606 1061.705200,585.456909 1061.575562,570.669617 
	C1061.433716,554.476379 1064.109131,538.831909 1076.559814,527.171021 
	C1092.097656,512.618896 1110.745117,510.023438 1130.460693,516.398254 
	C1149.274414,522.481384 1159.047241,536.574219 1162.071899,555.707031 
	C1164.181396,569.049744 1163.716064,582.221069 1159.088379,595.052063 
	C1155.460693,605.110596 1149.141846,613.006226 1139.617676,618.718506 
M1084.821655,557.505371 
	C1083.061035,567.979004 1082.966675,578.386353 1086.714966,588.485657 
	C1091.100342,600.301880 1100.592651,606.978638 1112.506470,606.933105 
	C1124.403809,606.887634 1133.998047,600.137329 1138.118286,588.276489 
	C1142.459106,575.781494 1142.375488,563.098267 1138.034668,550.600281 
	C1135.221436,542.500244 1129.896729,536.572510 1121.517334,533.832703 
	C1104.250854,528.187073 1089.625244,537.329651 1084.821655,557.505371 
z"/>
<path fill="#434344" opacity="1.000000" stroke="none" 
	d="
M202.077942,559.237366 
	C204.078598,544.838013 208.949249,532.409180 220.589981,523.525391 
	C246.167542,504.005371 296.128540,511.152405 302.173157,556.256165 
	C304.179199,571.225037 303.760681,585.898865 297.087646,599.720825 
	C286.437744,621.780273 258.733246,631.684753 233.553085,622.551697 
	C213.104156,615.134705 204.089035,599.233398 202.070969,578.639771 
	C201.457474,572.379333 202.013092,566.004211 202.077942,559.237366 
M258.251923,532.941284 
	C243.907990,530.536011 232.200531,536.454346 227.213272,549.465576 
	C222.088867,562.834534 222.145447,576.558472 227.290375,589.927368 
	C231.481384,600.817566 241.220154,607.167175 252.566132,606.884949 
	C264.331573,606.592224 272.976685,601.038818 277.415405,590.066895 
	C282.533447,577.415710 282.479156,564.377075 278.348816,551.470215 
	C275.309662,541.973267 268.993896,535.533997 258.251923,532.941284 
z"/>
<path fill="#444445" opacity="1.000000" stroke="none" 
	d="
M481.050507,604.276611 
	C485.876251,601.458862 487.797974,597.538635 487.330994,592.388062 
	C486.844269,587.019714 482.981995,584.522949 478.587219,583.269104 
	C467.890594,580.217102 456.994446,577.864502 446.298370,574.810852 
	C434.785706,571.523987 425.631287,565.609985 423.882874,552.353271 
	C421.309326,532.840332 430.896790,519.065552 450.338562,514.805603 
	C461.789917,512.296448 473.181152,512.541260 484.187378,516.935059 
	C497.316254,522.176208 505.666107,534.674561 504.830597,547.654053 
	C498.076202,547.654053 491.301605,547.654053 484.539978,547.654053 
	C480.018036,533.069214 463.470184,526.813477 450.116638,534.612549 
	C445.841827,537.109253 443.686462,540.830933 444.132996,545.808899 
	C444.576569,550.753662 447.690033,553.642456 452.208527,554.848511 
	C462.801300,557.675842 473.456726,560.268372 484.081665,562.976074 
	C485.529388,563.344971 486.962738,563.785278 488.377197,564.267456 
	C499.838226,568.173462 507.903748,575.200989 508.697632,588.020752 
	C509.530243,601.465576 505.357361,613.063721 492.793549,619.463989 
	C474.740051,628.660706 456.140411,628.356323 438.118164,619.293823 
	C427.065277,613.735840 421.234833,602.072754 422.317352,590.269653 
	C423.071533,590.201660 423.870697,590.069458 424.670258,590.067139 
	C430.651764,590.049438 436.633392,590.057495 442.536072,590.057495 
	C445.675049,602.469421 451.075134,607.125732 463.659882,607.064880 
	C469.352753,607.037354 475.037811,605.393860 481.050507,604.276611 
z"/>
<path fill="#434344" opacity="1.000000" stroke="none" 
	d="
M741.047852,621.073242 
	C728.408630,614.885193 722.319702,604.642822 722.081848,591.317749 
	C721.647766,567.005066 721.805237,542.681763 721.733704,518.362854 
	C721.731873,517.740723 721.936768,517.117859 722.078552,516.304199 
	C729.339050,516.304199 736.428162,516.304199 744.130066,516.304199 
	C744.130066,518.195618 744.130127,519.963074 744.130127,521.730591 
	C744.130188,541.720886 744.127014,561.711243 744.135742,581.701538 
	C744.136536,583.532715 744.116882,585.371948 744.270203,587.193726 
	C745.664978,603.760925 758.894348,611.583374 774.245300,604.924316 
	C780.758362,602.098999 783.972961,596.834229 784.096375,589.999695 
	C784.391052,573.681030 784.359741,557.356323 784.430603,541.033936 
	C784.465942,532.902466 784.436707,524.770752 784.436707,516.361206 
	C792.111816,516.361206 799.331055,516.361206 807.035706,516.361206 
	C807.035706,518.969971 807.035706,521.421570 807.035706,523.873169 
	C807.035706,543.696899 807.085449,563.520874 806.995056,583.344177 
	C806.976135,587.488831 806.750305,591.681580 806.085876,595.765320 
	C803.819092,609.697327 796.000610,619.095947 782.374756,623.149536 
	C768.545593,627.263733 754.808289,627.093567 741.047852,621.073242 
z"/>
<path fill="#434344" opacity="1.000000" stroke="none" 
	d="
M126.258682,516.090454 
	C143.568069,511.056580 159.664276,512.311035 174.020752,523.269287 
	C182.892288,530.040833 187.535995,539.465698 188.972885,551.057678 
	C182.102066,551.057678 175.465347,551.169312 168.840714,550.936646 
	C167.854324,550.901978 166.423080,549.418457 166.047363,548.315796 
	C162.637421,538.308105 155.793701,533.186768 145.200424,532.820068 
	C134.165100,532.438049 125.893158,537.093567 121.622864,547.082397 
	C114.959213,562.669556 115.005478,578.588562 122.516174,593.949524 
	C127.102188,603.328979 135.290039,606.994812 145.624207,606.243774 
	C155.781265,605.505676 162.423264,600.088135 165.438293,590.683167 
	C166.611542,587.023315 168.176620,586.073364 171.679764,586.237976 
	C177.153290,586.495239 182.647781,586.306152 188.156189,586.306152 
	C186.143158,607.552673 170.672318,622.360779 152.453995,625.031311 
	C120.421608,629.726868 97.278168,611.060181 94.978981,578.716003 
	C94.218697,568.020508 94.474983,557.445190 97.716911,547.079712 
	C102.315224,532.377380 111.267395,521.726990 126.258682,516.090454 
z"/>
<path fill="#434344" opacity="1.000000" stroke="none" 
	d="
M864.689087,534.304199 
	C857.678833,537.319214 853.126770,542.274170 850.730713,548.977966 
	C845.418518,563.840271 845.334717,578.712952 852.098389,593.157227 
	C856.645996,602.868896 864.700500,607.031799 875.724854,606.215088 
	C885.588318,605.484314 892.676880,600.032288 895.684021,590.132141 
	C896.594788,587.133545 897.721558,586.117920 900.781860,586.239502 
	C906.589600,586.470215 912.412964,586.306213 918.260254,586.306213 
	C915.882751,607.755188 900.697754,622.377075 882.351929,625.037659 
	C850.297058,629.686401 827.275940,611.009766 824.962158,578.615417 
	C823.914185,563.943176 824.917725,549.652710 832.184814,536.440430 
	C841.032349,520.354614 858.772034,511.589966 878.112488,513.525940 
	C897.204895,515.437012 911.045471,524.227722 917.327271,543.080872 
	C917.693054,544.178528 917.924561,545.323792 918.171326,546.457275 
	C918.452148,547.747192 918.679810,549.048706 919.066956,551.050415 
	C912.024048,551.050415 905.274902,551.119019 898.531067,550.960449 
	C897.719360,550.941406 896.415405,549.817139 896.217896,548.994202 
	C892.540344,533.669983 876.977051,530.455811 864.689087,534.304199 
z"/>
<path fill="#424243" opacity="1.000000" stroke="none" 
	d="
M559.020447,623.001587 
	C555.559326,623.001587 552.588989,623.001587 549.178589,623.001587 
	C549.178589,593.644714 549.178589,564.606750 549.178589,535.103271 
	C538.348267,535.103271 527.951599,535.103271 517.302917,535.103271 
	C517.302917,528.713318 517.302917,522.782776 517.302917,516.464600 
	C545.708557,516.464600 574.203369,516.464600 602.932373,516.464600 
	C602.932373,522.504883 602.932373,528.436829 602.932373,534.855347 
	C592.550110,534.855347 582.150085,534.855347 571.287964,534.855347 
	C571.287964,564.370911 571.287964,593.408691 571.287964,623.001587 
	C567.065063,623.001587 563.288147,623.001587 559.020447,623.001587 
z"/>
<path fill="#424243" opacity="1.000000" stroke="none" 
	d="
M980.140137,538.256165 
	C980.139160,566.659790 980.139160,594.585999 980.139160,622.755981 
	C972.677429,622.755981 965.610779,622.755981 958.090027,622.755981 
	C958.090027,593.557007 958.090027,564.518677 958.090027,535.013062 
	C947.253784,535.013062 936.858093,535.013062 926.257751,535.013062 
	C926.257751,528.616882 926.257751,522.688232 926.257751,516.418945 
	C954.677673,516.418945 983.048523,516.418945 1011.792847,516.418945 
	C1011.792847,522.372070 1011.792847,528.413330 1011.792847,535.011719 
	C1002.572266,535.011719 993.303162,535.006165 984.033997,535.016174 
	C982.104309,535.018311 979.741699,534.468872 980.140137,538.256165 
z"/>
<path fill="#484849" opacity="1.000000" stroke="none" 
	d="
M1025.376709,623.002991 
	C1024.389160,621.957397 1023.411255,620.924805 1023.409058,619.890137 
	C1023.336670,585.922974 1023.356201,551.955627 1023.381042,517.988342 
	C1023.381348,517.520691 1023.621460,517.053223 1023.818237,516.335449 
	C1030.905884,516.335449 1037.978760,516.335449 1045.366943,516.335449 
	C1045.366943,551.807556 1045.366943,587.174866 1045.366943,623.015015 
	C1038.739990,623.015015 1032.290649,623.015015 1025.376709,623.002991 
z"/>
<path fill="#FCFCFC" opacity="1.000000" stroke="none" 
	d="
M620.111145,382.000000 
	C619.751892,396.301849 619.599182,410.114044 618.905640,423.899078 
	C618.701965,427.945953 617.338135,432.062378 615.838684,435.885193 
	C613.742310,441.229858 609.352112,443.769867 603.617615,443.609619 
	C597.759033,443.445892 593.631775,440.416412 592.096924,434.363007 
	C590.965820,429.901611 590.369263,425.184235 590.356201,420.578552 
	C590.231384,376.624634 590.237366,332.670074 590.350647,288.716095 
	C590.362061,284.271820 590.895813,279.725281 591.947510,275.411621 
	C593.515015,268.983032 597.204834,266.115784 603.023987,265.734955 
	C609.480774,265.312347 614.337280,267.681396 616.120972,274.114319 
	C618.184937,281.557983 619.699158,289.397217 619.825439,297.091431 
	C620.286926,325.221619 620.071594,353.362885 620.111145,382.000000 
z"/>
<path fill="#FCFCFC" opacity="1.000000" stroke="none" 
	d="
M396.137482,439.682861 
	C394.979370,434.664307 393.166565,429.987000 393.145172,425.301575 
	C392.931488,378.488342 392.994812,331.673767 393.053772,284.859680 
	C393.057495,281.886505 393.451019,278.868469 394.048065,275.950043 
	C395.711884,267.817352 400.345947,263.966156 408.161560,263.919098 
	C416.241119,263.870453 420.683929,267.253784 422.430206,275.628510 
	C423.339264,279.988159 423.599762,284.549164 423.608185,289.020233 
	C423.690735,332.835632 423.687714,376.651276 423.614288,420.466705 
	C423.606781,424.945618 423.332611,429.485565 422.554138,433.886139 
	C421.577789,439.405731 418.930389,443.936951 412.801910,445.211792 
	C406.348724,446.554169 400.512115,445.872131 396.137482,439.682861 
z"/>
<path fill="#FCFCFC" opacity="1.000000" stroke="none" 
	d="
M787.980469,292.011047 
	C788.313477,286.377380 788.219666,281.168793 789.076355,276.121521 
	C790.473572,267.889374 795.236267,264.018402 802.983765,263.923065 
	C811.229309,263.821564 815.851624,267.377289 817.539856,275.917511 
	C818.403870,280.288513 818.605774,284.847260 818.613403,289.321991 
	C818.688293,332.945190 818.713806,376.568726 818.587158,420.191711 
	C818.571838,425.471039 818.067810,430.858795 816.908813,435.997498 
	C815.422913,442.585968 810.696472,445.683258 803.655151,445.835693 
	C796.687561,445.986542 791.667664,443.043884 789.929199,436.630432 
	C788.643250,431.886505 788.079651,426.810669 788.063782,421.879883 
	C787.924805,378.756439 787.981689,335.632416 787.980469,292.011047 
z"/>
<path fill="#FEFEFE" opacity="1.000000" stroke="none" 
	d="
M653.001221,563.099487 
	C647.866028,563.099487 643.229797,563.099487 638.273926,563.099487 
	C638.273926,553.648926 638.273926,544.443909 638.273926,535.053528 
	C648.919678,535.053528 659.514709,534.628357 670.054504,535.208130 
	C676.690918,535.573303 680.715210,541.062988 680.962585,547.974182 
	C681.250488,556.017578 678.127869,561.059937 670.874817,562.272766 
	C665.195923,563.222351 659.299805,562.872070 653.001221,563.099487 
z"/>
<path fill="#FEFEFE" opacity="1.000000" stroke="none" 
	d="
M1084.886963,557.083618 
	C1089.625244,537.329651 1104.250854,528.187073 1121.517334,533.832703 
	C1129.896729,536.572510 1135.221436,542.500244 1138.034668,550.600281 
	C1142.375488,563.098267 1142.459106,575.781494 1138.118286,588.276489 
	C1133.998047,600.137329 1124.403809,606.887634 1112.506470,606.933105 
	C1100.592651,606.978638 1091.100342,600.301880 1086.714966,588.485657 
	C1082.966675,578.386353 1083.061035,567.979004 1084.886963,557.083618 
z"/>
<path fill="#FEFEFE" opacity="1.000000" stroke="none" 
	d="
M258.657593,533.007629 
	C268.993896,535.533997 275.309662,541.973267 278.348816,551.470215 
	C282.479156,564.377075 282.533447,577.415710 277.415405,590.066895 
	C272.976685,601.038818 264.331573,606.592224 252.566132,606.884949 
	C241.220154,607.167175 231.481384,600.817566 227.290375,589.927368 
	C222.145447,576.558472 222.088867,562.834534 227.213272,549.465576 
	C232.200531,536.454346 243.907990,530.536011 258.657593,533.007629 
z"/>
</svg>